<svg height="212pt" preserveAspectRatio="xMidYMid meet" viewBox="0 0 238 212" width="238pt" xmlns="http://www.w3.org/2000/svg"><g transform="matrix(.1 0 0 -.1 0 212)"><path d="m1126 2073-39-36 12-121c7-67 15-136 18-153 4-25 2-33-10-33-14 0-29 60-53 218l-7 43-27-26-28-27 33-109 32-110-32-13c-71-30-66-33-128 74-52 91-60 100-87 100-17 0-30-2-30-5s34-54 75-112c54-77 72-109 63-115-8-4-17-2-23 5-5 7-47 61-93 120l-83 107h-55-54v-60-60l114-92c69-56 112-98 109-106-5-10-9-10-24 0-10 7-59 41-109 76l-90 63v-33c0-31 6-36 86-83 47-27 90-53 96-56 12-8-19-99-34-99-6 0-57 12-114 27l-104 28-26-26-25-26 132-21c73-12 135-24 137-27 19-19-30-21-161-7l-148 15-40-39-40-39 42-37c23-21 51-38 63-38 11 0 79 7 149 16s131 14 134 10c14-14-17-24-134-47l-123-23 26-27 25-26 97 28c53 16 102 29 108 29s19-21 30-47l20-48-98-58c-93-55-98-59-98-91v-34l111 75c61 41 113 72 116 69 9-9-8-25-121-116l-105-85-1-57v-58h58l57 1 91 118c61 81 95 117 103 112 9-6-9-39-64-117-68-98-73-109-55-112 36-6 46 3 99 90 28 46 54 89 59 96 7 10 18 8 55-8 26-12 47-24 47-28-1-4-14-54-30-112l-29-105 23-23 23-24 17 114c21 139 24 148 42 148 10 0 14-6 11-17-3-10-11-78-18-151l-12-133 39-40 40-39 38 39 38 39-11 119c-7 65-15 133-18 151-4 25-2 32 10 32 19 0 22-8 43-148l18-113 25 26 26 25-24 88c-39 141-39 134 14 156 34 13 49 16 54 7 4-6 29-49 56-96 47-80 51-85 83-85h34l-17 28c-10 15-40 58-68 96-27 38-50 76-51 84-3 38 26 13 104-93l85-114 63-1h62v49c0 55 2 53-153 174-75 58-98 87-68 87 4 0 52-31 107-70 54-38 103-70 107-70 5 0 7 15 5 32-3 30-11 37-95 83-50 27-94 53-98 57-8 7 24 98 34 98 3 0 48-11 100-25 99-27 118-26 145 4 16 17 11 19-107 39-68 12-126 22-130 22s-7 7-7 15c0 19 5 19 173-1l138-16 33 38 33 39-30 37c-35 44-33 44-212 24-66-8-123-12-127-9-22 13 4 22 119 42 71 12 129 24 130 25 2 1-8 13-22 26l-25 24-95-27c-52-15-101-27-109-27-11 0-46 70-46 92 0 3 43 31 95 62 86 52 95 60 95 87 0 35 9 39-118-49-64-44-97-61-104-54s27 39 106 102l116 93v59 58h-54-54l-92-119c-60-78-97-118-106-114-16 6-18 3 61 118 33 50 65 96 69 103 5 9-2 12-27 12-32 0-36-5-80-82-71-128-64-122-114-101-24 10-43 24-43 31s12 59 26 114l25 101-24 25-24 24-16-89c-9-48-19-107-23-130-4-27-12-43-20-43-17 0-17-9 2 161l16 141-38 39-39 38z"/><path d="m100 1987c0-2 13-42 29-89l29-86-74-54-75-53 90-3 90-3 28-85 28-85 28 85 28 85 92 3 91 3-72 53c-40 30-72 57-72 61s11 41 25 81 25 75 25 77c0 3-32-18-72-46-42-30-76-47-82-43-6 5-39 30-73 56-35 26-63 46-63 43z"/><path d="m2145 1913c-27-40-54-73-60-73-5 0-45 11-88 24-73 22-77 23-65 5 7-10 31-44 52-74l39-56-51-74-51-73 86 29c48 16 89 25 92 21 3-5 26-37 51-72l45-63 3 89 3 90 86 29 87 29-84 27-85 27-5 94-5 93z"/><path d="m1145 378-27-88h-91-91l64-46c36-26 69-50 74-54 4-5-4-44-18-87s-26-82-26-86c0-5 28 13 63 39 34 26 67 51 72 55 6 4 43-17 83-47 39-30 72-53 72-52 0 2-11 39-25 83s-25 83-25 87c0 3 30 28 68 55l67 48-87 3-87 3-29 87-29 87z"/></g></svg>